<svg width="509" height="695" viewBox="0 0 509 695" fill="none" xmlns="http://www.w3.org/2000/svg">
<g clip-path="url(#clip0_602_21)">
<path d="M32.48 561.53L33.6602 554.39H9.81006L12.8101 533.56H47.9001L46.72 543.67H34.8101L35.4302 539.51H24.1101L22.3201 548.44H46.1201L43.8101 564.5C43.8107 565.072 43.6699 565.636 43.4001 566.14C43.1385 566.658 42.7704 567.114 42.3201 567.48C41.8656 567.851 41.3517 568.141 40.8 568.34C40.2342 568.553 39.6345 568.661 39.03 568.66H8.1001L9.27002 559.11L11.0701 561.53H32.48Z" fill="#EBE547"/>
<path d="M80.53 534.74L79.3501 533.56H93.6201L76.3801 554.39L74.5801 568.66H62.6802L64.48 554.39L54.3701 535.3L52.5701 533.56H65.1001L71.6001 546.64L80.53 534.74Z" fill="#EBE547"/>
<path d="M150.65 542.49L147.06 568.66H135.15L138.75 544.23L136.95 542.49H150.65ZM150.65 540.69H139.31L139.93 533.56H151.81L150.65 540.69Z" fill="#EBE547"/>
<path d="M191.33 542.49L187.73 568.66H175.81L178.81 548.44H171.68L168.68 568.66H156.81L160.41 544.23L158.61 542.49H191.33Z" fill="#EBE547"/>
<path d="M202.24 538.89L201.06 537.1H214.14L213.34 542.49H220.71L219.47 548.49H212.59L210.59 562.75H216.59L215.41 568.75H202.33C201.788 568.769 201.248 568.674 200.745 568.47C200.242 568.267 199.787 567.96 199.41 567.57C199.037 567.178 198.776 566.692 198.656 566.164C198.537 565.636 198.562 565.085 198.73 564.57L201.15 548.51H196.38L196.99 542.51H201.83L202.24 538.89Z" fill="#EBE547"/>
<path d="M255.99 557.93H236.99L236.37 562.7H253.04L256.04 560.35L254.24 568.66H228.08C227.568 568.694 227.056 568.605 226.586 568.399C226.116 568.194 225.703 567.879 225.38 567.48C224.752 566.609 224.434 565.553 224.48 564.48L227.48 542.48H258.42L255.99 557.93ZM238.69 548.44L238.13 551.98H245.26L245.88 548.44H238.69Z" fill="#EBE547"/>
<path d="M277.57 542.49L276.39 550.8L284.76 542.49H296.66L276.39 560.35L275.21 568.66H263.31L266.81 544.2L265.57 542.46L277.57 542.49Z" fill="#EBE547"/>
<path d="M329.81 557.93H310.81L310.19 562.7H326.81L329.81 560.35L328.01 568.66H301.81C301.298 568.694 300.786 568.605 300.316 568.399C299.846 568.194 299.433 567.879 299.11 567.48C298.482 566.609 298.164 565.553 298.21 564.48L301.21 542.48H332.15L329.81 557.93ZM312.51 548.44L311.95 551.98H319.08L319.7 548.44H312.51Z" fill="#EBE547"/>
<path d="M371 548.44H352L349.64 562.7H366.26L369.26 560.35L368.08 568.66H337.15L341.3 542.49H371.68L371 548.44Z" fill="#EBE547"/>
<path d="M382.53 538.89L381.35 537.1H394.44L393.63 542.49H401.01L399.77 548.49H392.89L390.89 562.75H396.81L395.63 568.75H382.55C382.009 568.77 381.47 568.675 380.969 568.472C380.467 568.269 380.014 567.961 379.64 567.57C379.267 567.178 379.006 566.692 378.886 566.164C378.767 565.636 378.792 565.085 378.96 564.57L381.37 548.51H376.6L377.22 542.51H382.06L382.53 538.89Z" fill="#EBE547"/>
<path d="M420.23 542.49L416.63 568.66H404.73L408.32 544.23L406.53 542.49H420.23ZM420.23 540.69H408.88L409.5 533.56H421.41L420.23 540.69Z" fill="#EBE547"/>
<path d="M456.13 542.49C456.668 542.47 457.202 542.594 457.675 542.851C458.148 543.108 458.544 543.488 458.82 543.95C459.424 544.925 459.737 546.053 459.72 547.2L456.72 568.66H429.93C429.418 568.694 428.906 568.605 428.436 568.399C427.966 568.194 427.552 567.879 427.23 567.48C426.604 566.609 426.291 565.552 426.34 564.48L429.34 542.48L456.13 542.49ZM440.63 548.49L438.27 562.75H445.4L447.82 548.49H440.63Z" fill="#EBE547"/>
<path d="M499.21 542.49L495.62 568.66H483.71L486.71 548.44H479.58L476.58 568.66H464.68L468.28 544.23L466.48 542.49H499.21Z" fill="#EBE547"/>
<path d="M17.4202 609.59L12.4202 605.87H54.9302L55.6201 600.76L51.2 595.52H85.01L83.49 605.87H122.41L112.89 674.04H73.8301L70.9302 694.6H42.3701L45.27 674.04H8.42017L17.4202 609.59ZM33.7 661.34H47.0901L49.1602 646.85H35.8101L33.7 661.34ZM37.7 632.91H51.0801L53.1501 618.42H39.8101L37.7 632.91ZM88.8901 661.34L90.96 646.85H77.72L75.6501 661.34H88.8901ZM81.72 618.42L79.6501 632.91H92.9001L94.97 618.42H81.72Z" fill="#EBE547"/>
<path d="M171.98 612.35L160.53 694.6H135.27L146.04 616.91L137.62 618.29L139.96 601.59L174.33 595.66L171.98 612.35ZM219.59 595.79L212.59 618.29H249.59L247.79 631.81H208.41L189.23 694.32H163.42L184.68 631.81H174.74L176.53 618.29H189.23L195.16 600.9L191.02 595.79H219.59ZM241.53 694.32H202.2L210.48 635.81H234.36L227.87 681.49H238.08L244.02 676.25L241.53 694.32ZM228.28 613.73L226.35 598.28H246.09L247.88 613.73H228.28Z" fill="#EBE547"/>
<path d="M328.33 678.59L331.09 667.41H266.37L287.9 611.11H274.1L276.03 597.86H380.81L378.81 611.11H312.71L308.85 620.91H368.05L355.21 678.59H374.95L373.02 691.84H257.81L259.74 678.59H328.33ZM297.56 653.89H334.68L339.79 634.43H304.74L297.56 653.89Z" fill="#EBE547"/>
<path d="M438.6 660.93L437.77 694.74H416.77V691.01L383.93 694.74L385.86 681.91L399.11 639.91H391.66L393.59 626.8H446.03L444.1 639.91H420.1L407.55 679.24L417.21 678.14L417.62 660.89L438.6 660.93ZM447.01 600.62L445.22 613.73H398.02L399.82 600.62H447.01ZM459.01 624.22H451.56L453.49 611.11H462.32L465.08 600.11L460.94 595.42H487.16L483.3 611.15H508.55L498.06 685.67C497.646 688.221 496.334 690.541 494.361 692.211C492.389 693.881 489.885 694.792 487.3 694.78H465.36L477.5 682.08L485.64 624.26H479.99L462.6 694.78H441.6L459.01 624.22Z" fill="#EBE547"/>
<path d="M254.1 0.0299866C392.27 -2.18001 510.44 114.2 508.54 257.49C506.73 394.37 393.81 509 253.17 508.38C115.23 507.76 -1.19007 395.2 0.00992732 251.25C1.15993 113.33 114.81 -1.41001 254.1 0.0299866ZM195.68 50.29L195.62 51.63C198.86 53.13 202.12 54.63 205.34 56.14C237.34 71.37 260.16 94.99 271.8 128.86C272.62 131.27 273.57 133.24 276.34 134.31C285.651 137.976 294.056 143.615 300.98 150.84C316.73 166.84 332.89 182.51 348.67 198.53C356.92 206.91 366.23 214.53 371.07 225.72C372.58 229.19 374.85 230.15 378.45 230.11C393.26 229.95 408.07 230.04 422.88 230.05C430.47 230.05 430.48 230.05 430.49 237.41C430.49 247.07 430.2 256.75 430.64 266.41C430.86 271.26 429.13 272.41 424.71 272.34C410.07 272.16 395.42 272.34 380.78 272.24C376.7 272.24 374.42 273.71 373.07 277.71C370.366 285.444 365.898 292.442 360.02 298.15C341.76 316.39 323.47 334.61 305.34 352.98C298.29 360.12 291.11 366.98 281.95 371.41C278.95 372.85 278.74 374.57 280.36 377.35C287.105 389.102 296.708 398.96 308.28 406.01C329.52 418.94 352.89 423.7 377.37 424.38C379.73 424.45 381.49 423.38 383.21 421.99C391.685 415.274 399.731 408.033 407.3 400.31C441.393 364.667 461.972 318.24 465.485 269.042C468.997 219.845 455.223 170.965 426.54 130.84C408.107 104.997 384.098 83.6296 356.29 68.32C326.29 51.69 294.1 43.32 259.97 42.2C243.665 41.7994 227.367 43.2012 211.37 46.38C206.09 47.37 200.91 48.96 195.68 50.29ZM314.68 456.98C313.31 454.9 311.88 454.84 310.68 454.37C293.12 447.52 277.28 437.9 263.76 424.7C250.415 411.564 240.297 395.514 234.2 377.81C233.836 376.633 233.206 375.556 232.358 374.663C231.51 373.769 230.467 373.084 229.31 372.66C221.938 369.544 215.254 365.004 209.64 359.3C192.373 341.967 175.04 324.717 157.64 307.55C148.12 298.15 138.79 288.66 134.5 275.55C133.42 272.25 130.92 272.17 128.11 272.18C113.303 272.227 98.4934 272.227 83.6801 272.18C77.0801 272.18 76.82 271.87 76.8 265.51C76.8 255.84 77.0299 246.17 76.6999 236.51C76.5299 231.43 78.29 229.87 83.3 229.96C98.94 230.22 114.58 229.96 130.22 230.11C134.09 230.11 136.46 228.88 137.86 225.21C140.22 219.02 144.46 214.03 149.04 209.41C167.76 190.51 186.547 171.673 205.4 152.9C211.16 147.14 216.78 141.08 224.47 137.9C228.3 136.29 228.58 134.28 226.78 130.98C221.403 120.983 213.957 112.246 204.94 105.35C185.12 90.25 162.17 84.52 137.94 82.2C132.37 81.66 128.06 83.61 123.84 87.04C111.268 97.1778 99.7623 108.57 89.4999 121.04C68.4299 146.77 54.7199 176.16 47.2699 208.44C43.0599 226.69 42.27 245.34 42.85 264.07C43.7074 286.749 48.3549 309.125 56.6 330.27C67.11 357.87 83.11 381.94 103.86 403.01C122.999 422.578 145.811 438.176 170.99 448.91C208.9 465.06 248.37 470.03 289.16 463.07C297.809 461.675 306.342 459.64 314.69 456.98H314.68ZM253.85 334.98C262.13 335.22 267.92 330.48 273.29 325.11C291.65 306.79 309.983 288.44 328.29 270.06C337.29 261.06 337.87 247.75 328.95 238.76C309.41 219.053 289.743 199.463 269.95 179.99C260.18 170.36 247.78 170.55 238.15 180.16C218.95 199.32 199.79 218.52 180.67 237.76C170.93 247.54 170.67 259.84 180.26 269.62C199.273 288.953 218.4 308.16 237.64 327.24C242.09 331.66 247.26 334.99 253.86 334.99L253.85 334.98Z" fill="#EBE547"/>
</g>
<defs>
<clipPath id="clip0_602_21">
<rect width="508.56" height="694.74" fill="white"/>
</clipPath>
</defs>
</svg>
